<svg width="96" height="96" viewBox="0 0 96 96" fill="none" xmlns="http://www.w3.org/2000/svg">
<g clip-path="url(#clip0_51_246)">
<rect width="96" height="96" fill="white"/>
<path d="M56.5507 21.773L56.2364 21.7024C55.9991 21.6447 55.7618 21.5806 55.5309 21.51L55.2871 21.4331C55.0041 21.3449 54.7257 21.2422 54.4533 21.1252L54.2032 21.0162C54.0044 20.9264 53.8119 20.8366 53.6259 20.7339L53.3822 20.5992C53.1371 20.4624 52.8994 20.3125 52.6703 20.1503L52.5997 20.0926C52.3945 19.945 52.1956 19.7847 52.0032 19.6179C51.9519 19.5666 51.8878 19.5153 51.8365 19.4576C51.7851 19.3999 51.5927 19.2138 51.4709 19.092C51.349 18.9701 51.2015 18.8034 51.0796 18.643C51.0796 18.6109 51.0219 18.5789 50.9962 18.5404C50.8229 18.3225 50.6643 18.0932 50.5216 17.8541L50.4382 17.7194C50.2961 17.4855 50.1676 17.2435 50.0534 16.9946L49.9764 16.8343C49.8674 16.5842 49.7712 16.334 49.675 16.071C49.3672 15.1627 49.1775 14.2185 49.1106 13.2618C49.1106 12.8641 49.1106 12.5049 49.1106 12.1906C50.6114 12.2291 53.5297 12.5819 55.7425 14.583C57.5897 16.257 58.5903 18.7777 58.7186 22.0873C57.979 22.0325 57.2439 21.9275 56.5186 21.773M55.0306 29.2323C54.3815 28.9608 53.7516 28.6458 53.1449 28.2895H53.0936C52.8434 28.1356 52.5997 27.9816 52.3688 27.8213C52.2846 27.7679 52.2032 27.7101 52.1251 27.6481C51.9711 27.5455 51.8236 27.43 51.6889 27.321C51.5542 27.212 51.5158 27.1863 51.4388 27.1158C51.3618 27.0452 51.1117 26.8271 50.9578 26.686L50.7846 26.5064C50.6306 26.3525 50.4831 26.1922 50.3484 26.0318C50.2894 25.9663 50.2337 25.8978 50.1817 25.8266C50.0662 25.6855 49.9508 25.5379 49.8482 25.384L49.7519 25.1531C49.6108 24.935 49.4761 24.717 49.3543 24.5117C49.4184 24.4412 49.4633 24.3642 49.521 24.2936C49.7391 24.0243 49.9444 23.7485 50.1624 23.4727C50.2651 23.3316 50.3805 23.184 50.4767 23.0365C50.6884 22.7351 50.8808 22.4272 51.0604 22.1193C51.1181 22.0231 51.1887 21.9333 51.24 21.8371L51.3747 21.9205C51.535 22.036 51.7018 22.145 51.8685 22.254L52.4009 22.5747C52.5869 22.6773 52.7857 22.78 52.9845 22.8762C53.1834 22.9724 53.3501 23.0494 53.5361 23.1263C53.7221 23.2033 53.953 23.2995 54.1775 23.3765C54.402 23.4534 54.588 23.524 54.8189 23.5881C55.0498 23.6523 55.2486 23.7228 55.4603 23.7805C55.515 23.7985 55.5707 23.8135 55.6271 23.8254C55.8382 25.6497 55.6343 27.498 55.0306 29.2323ZM47.9753 33.4463C46.8354 32.256 45.8328 30.9415 44.9864 29.5274C45.2494 29.3478 45.4931 29.1554 45.7304 28.963C45.9677 28.7705 46.0383 28.7 46.1922 28.5717C46.3462 28.4434 46.5642 28.2382 46.7438 28.0586C46.9234 27.879 46.9876 27.802 47.103 27.6674C47.2185 27.5327 47.398 27.3402 47.5392 27.1607L47.8406 26.7758L47.9753 26.5962C48.0166 26.6567 48.0616 26.7145 48.11 26.7694C48.1998 26.9041 48.3088 27.0324 48.4114 27.1671C48.5141 27.3018 48.6937 27.507 48.8412 27.6674C48.9887 27.8277 49.0785 27.9303 49.2068 28.0586C49.335 28.1869 49.5595 28.3985 49.7519 28.5653C49.9444 28.7321 50.0662 28.8411 50.233 28.9758C50.3997 29.1105 50.7076 29.3542 50.9578 29.5274C50.1116 30.94 49.1114 32.2543 47.9753 33.4463ZM44.2937 27.2889C44.1462 27.4044 43.9987 27.5198 43.8448 27.6289L43.6074 27.7956C43.3765 27.956 43.1328 28.1099 42.8827 28.2638H42.8249C42.2295 28.6279 41.6102 28.9514 40.9713 29.2323C40.3852 27.4962 40.201 25.6496 40.4326 23.8318C40.4889 23.8199 40.5446 23.8049 40.5993 23.787C40.8238 23.7292 41.0355 23.6587 41.2407 23.5945C41.446 23.5304 41.6576 23.4598 41.8821 23.3829C42.1066 23.3059 42.3054 23.2225 42.5235 23.1327C42.7416 23.0429 42.9019 22.9724 43.0815 22.8826L43.6587 22.5811C43.8448 22.4785 44.0179 22.3695 44.1975 22.254C44.3771 22.1386 44.531 22.0424 44.6914 21.9269L44.8197 21.8435C44.871 21.9398 44.9415 22.0295 44.9928 22.1193C45.1853 22.4272 45.3713 22.7607 45.5893 23.0429C45.6855 23.1905 45.7946 23.338 45.9036 23.4791C46.096 23.7549 46.3013 24.0243 46.545 24.2936C46.6027 24.3706 46.654 24.4476 46.7118 24.5181C46.5944 24.741 46.4615 24.9553 46.3141 25.1595L46.1986 25.3327C46.0896 25.4802 45.9806 25.6342 45.8587 25.7817C45.7368 25.9292 45.7561 25.9164 45.6984 25.9805C45.6406 26.0446 45.4097 26.3076 45.2558 26.4615C45.2045 26.5193 45.1468 26.5706 45.089 26.6283C44.9351 26.7758 44.7684 26.9233 44.6016 27.0644L44.3643 27.2633M39.4512 21.773C38.7238 21.9279 37.9866 22.0329 37.2449 22.0873C37.3731 18.7905 38.3673 16.2699 40.2145 14.5958C42.4145 12.5947 45.3456 12.2355 46.8529 12.1971C46.8529 12.5177 46.8529 12.8898 46.8529 13.3002C46.7917 14.2173 46.6127 15.1227 46.3205 15.9941C46.2191 16.3025 46.0992 16.6045 45.9613 16.8984V16.9433C45.8335 17.2186 45.69 17.4862 45.5316 17.7451C45.5183 17.775 45.5011 17.8031 45.4803 17.8284C45.3327 18.0756 45.1699 18.3134 44.9928 18.5404L44.9095 18.643C44.7876 18.7969 44.6529 18.9381 44.5182 19.0856C44.3835 19.2331 44.2873 19.3357 44.159 19.4512L43.9794 19.6115C43.7969 19.7774 43.6041 19.9317 43.4022 20.0733L43.3124 20.1439C43.0879 20.3042 42.8506 20.4517 42.6069 20.5928L42.3631 20.7275C42.1771 20.8301 41.9783 20.9199 41.7795 21.0097L41.5293 21.1252C41.26 21.2406 40.9842 21.3368 40.6955 21.4331L40.4775 21.5357C40.2466 21.6062 40.0092 21.6768 39.7655 21.7281L39.4512 21.8051M47.2249 19.2395C47.2762 19.169 47.3211 19.092 47.3724 19.015C47.5965 18.6527 47.7999 18.2779 47.9817 17.8926C48.1715 18.282 48.3857 18.6591 48.6231 19.0214C48.668 19.092 48.7129 19.169 48.7642 19.2395C48.9837 19.573 49.2214 19.8942 49.4761 20.2016L49.5146 20.2529C49.4826 20.3042 49.4569 20.3619 49.4248 20.4197C49.2901 20.6634 49.1426 20.9071 48.9887 21.1573C48.9117 21.2791 48.8412 21.401 48.7578 21.5164C48.5461 21.8435 48.3152 22.1578 48.0715 22.4913L47.9945 22.6068L47.9176 22.5042C47.6738 22.1749 47.4429 21.8478 47.2249 21.5228C47.1415 21.401 47.0709 21.2727 46.994 21.1508C46.84 20.9071 46.6925 20.6634 46.5578 20.4197L46.4809 20.2529L46.545 20.1888C46.8011 19.8862 47.0368 19.5669 47.2505 19.2331M60.9955 24.3642V23.2674C61.0853 18.7392 59.8346 15.2757 57.2818 13.0052C53.6388 9.66998 48.6744 9.99068 48.001 10.0227C47.3275 9.99068 42.3631 9.66998 38.7201 12.9667C36.1545 15.2693 34.923 18.7392 35.0064 23.261L35 24.3578H36.116C36.8151 24.3578 37.4822 24.2872 38.13 24.2167C37.9915 26.5392 38.3705 28.8636 39.2396 31.0218L39.618 32.0545L40.6635 31.676C41.4976 31.3756 42.3117 31.0221 43.1007 30.6177C44.2454 32.4974 45.6272 34.2219 47.212 35.7489L48.001 36.5249L48.7834 35.7489C50.3702 34.2236 51.7522 32.4989 52.8947 30.6177C53.6838 31.0221 54.4979 31.3756 55.332 31.676L56.3839 32.0545L56.7623 31.0218C57.6193 28.8539 57.9894 26.5242 57.8463 24.1974C58.4877 24.268 59.129 24.3257 59.8602 24.3385L60.9955 24.3642Z" fill="black"/>
<path d="M31.9478 37.5175C35.5808 42.2212 39.8123 46.4304 44.5352 50.0383L79.6401 75.2978C79.2584 76.5632 78.4601 77.6623 77.3749 78.4167C76.2184 79.1747 74.8148 79.4592 73.4544 79.2112C71.7351 73.9011 66.3974 70.0589 61.6737 66.657L60.8952 66.0952L44.0167 54.693C42.9628 54.0448 39.3787 51.8377 37.6315 50.5423C36.5593 49.8484 34.5255 48.0841 34.5015 48.065C31.0354 44.9043 29.049 42.8369 27.9666 41.7158C29.0347 40.0888 30.2821 38.5868 31.6854 37.2382L31.9478 37.5175Z" fill="#292728"/>
<path d="M30.5606 35.8817C28.9315 37.4326 27.4968 39.1756 26.2882 41.0725L21.6906 42.8336L18.0583 56.081C15.7154 55.4171 13.5382 54.2681 11.6681 52.7084C9.79792 51.1487 8.27661 49.2132 7.20285 47.0276C15.1741 43.0533 21.3684 36.8938 26.4025 31.1821L30.5606 35.8817Z" fill="#292728"/>
<path d="M25.7457 29.2927L26.3969 28.5414L31.8588 34.7026L32.9774 36.0355L33.2972 36.4135C36.8387 40.9951 40.9612 45.0964 45.5609 48.6142L81.5745 74.547L81.4821 75.0895C81.1002 77.0292 79.9748 78.7427 78.3463 79.8638C77.5052 80.4118 76.56 80.7801 75.5699 80.9458C74.5798 81.1114 73.5661 81.0708 72.5924 80.8265L72.0706 80.716L71.9364 80.2011C70.5718 75.2094 65.3043 71.4184 60.6509 68.0678L43.1146 56.1544C42.0399 55.4991 38.4063 53.2479 36.6457 51.9497C35.5037 51.135 34.4032 50.2638 33.3483 49.3391C29.7908 46.0947 27.692 43.9112 26.6845 42.8591L26.632 42.8033L26.5314 42.8295L23.1234 44.1351L19.2888 58.2064L18.4751 57.995C15.5647 57.3131 12.8545 55.9588 10.5619 54.0405C8.26934 52.1223 6.45812 49.6935 5.27351 46.949L4.93938 46.1765L5.69982 45.8202C14.0925 41.8625 20.5478 35.2493 25.7457 29.2927ZM34.5072 48.0383C34.5072 48.0383 36.5709 49.8201 37.6371 50.5155C39.3844 51.8109 42.9745 54.0165 44.0224 54.6662L60.9009 66.0684L61.6794 66.6303C66.3974 70.0589 71.7352 73.9011 73.4545 79.2112C74.8148 79.4592 76.2184 79.1748 77.3749 78.4167C78.4601 77.6623 79.2584 76.5632 79.6401 75.2978L44.5306 50.0206C39.8077 46.4126 35.5762 42.2034 31.9432 37.4997L31.6865 37.1937C30.2832 38.5423 29.0357 40.0443 27.9677 41.6713C29.0547 42.8101 31.0411 44.8775 34.5072 48.0383ZM18.0583 56.081L21.6965 42.832L26.2941 41.0709C27.5028 39.174 28.9375 37.431 30.5666 35.8802L26.4026 31.182C21.3746 36.9174 15.1803 43.077 7.2029 47.0276C8.27666 49.2132 9.79797 51.1487 11.6681 52.7084C13.5382 54.2681 15.7154 55.4171 18.0583 56.081Z" fill="white"/>
<path d="M64.6946 37.5175C61.0617 42.2212 56.8301 46.4304 52.1072 50.0383L17.0023 75.2978C17.3841 76.5632 18.1824 77.6623 19.2676 78.4167C20.424 79.1747 21.8277 79.4592 23.188 79.2112C24.9073 73.9011 30.2451 70.0589 34.9687 66.657L35.7473 66.0952L52.6257 54.693C53.6796 54.0448 57.2637 51.8377 59.011 50.5423C60.0831 49.8484 62.117 48.0841 62.1409 48.065C65.607 44.9043 67.5935 42.8369 68.6758 41.7158C67.6078 40.0888 66.3604 38.5868 64.957 37.2382L64.6946 37.5175Z" fill="#292728"/>
<path d="M66.0819 35.8817C67.711 37.4326 69.1456 39.1756 70.3543 41.0725L74.9519 42.8336L78.5842 56.081C80.9271 55.4171 83.1043 54.2681 84.9744 52.7084C86.8445 51.1487 88.3658 49.2132 89.4396 47.0276C81.4684 43.0533 75.2741 36.8938 70.2399 31.1821L66.0819 35.8817Z" fill="#292728"/>
<path d="M70.8968 29.2927L70.2456 28.5414L64.7837 34.7026L63.6651 36.0355L63.3453 36.4135C59.8038 40.9951 55.6813 45.0964 51.0815 48.6142L15.0679 74.547L15.1604 75.0895C15.5423 77.0292 16.6677 78.7427 18.2961 79.8638C19.1373 80.4118 20.0825 80.7801 21.0726 80.9458C22.0627 81.1114 23.0763 81.0708 24.05 80.8265L24.5719 80.716L24.7061 80.2011C26.0706 75.2094 31.3381 71.4184 35.9915 68.0678L53.5279 56.1544C54.6026 55.4991 58.2361 53.2479 59.9968 51.9497C61.1388 51.135 62.2393 50.2638 63.2942 49.3391C66.8516 46.0947 68.9505 43.9112 69.958 42.8591L70.0105 42.8033L70.1111 42.8295L73.519 44.1351L77.3537 58.2064L78.1673 57.995C81.0778 57.3131 83.7879 55.9588 86.0805 54.0405C88.3731 52.1223 90.1843 49.6935 91.3689 46.949L91.7031 46.1765L90.9426 45.8202C82.5499 41.8625 76.0946 35.2493 70.8968 29.2927ZM62.1352 48.0383C62.1352 48.0383 60.0715 49.8201 59.0053 50.5155C57.2581 51.8109 53.668 54.0165 52.62 54.6662L35.7416 66.0684L34.963 66.6303C30.2451 70.0589 24.9073 73.9011 23.188 79.2112C21.8276 79.4592 20.424 79.1748 19.2675 78.4167C18.1823 77.6623 17.3841 76.5632 17.0023 75.2978L52.1118 50.0206C56.8347 46.4126 61.0663 42.2034 64.6992 37.4997L64.956 37.1937C66.3593 38.5423 67.6067 40.0443 68.6748 41.6713C67.5878 42.8101 65.6013 44.8775 62.1352 48.0383ZM78.5841 56.081L74.9459 42.832L70.3483 41.0709C69.1397 39.174 67.705 37.431 66.0759 35.8802L70.2399 31.182C75.2679 36.9174 81.4622 43.077 89.4396 47.0276C88.3658 49.2132 86.8445 51.1487 84.9744 52.7084C83.1042 54.2681 80.927 55.4171 78.5841 56.081Z" fill="white"/>
</g>
<defs>
<clipPath id="clip0_51_246">
<rect width="96" height="96" fill="white"/>
</clipPath>
</defs>
</svg>
